<svg width="374" height="186" viewBox="0 0 374 186" fill="none" xmlns="http://www.w3.org/2000/svg">
<rect width="374" height="186" rx="30" fill="white"/>
<rect x="20" y="20" width="334" height="146" rx="20" fill="#F7F7F7"/>
<path d="M211.936 97C206.449 97 201.916 92.5216 202.821 87.1091C203.957 80.3128 206.259 73.7379 209.65 67.6827C214.666 58.7257 221.897 51.2055 230.65 45.8416C239.403 40.4776 249.386 37.4493 259.644 37.0463C269.902 36.6432 280.092 38.879 289.239 43.5396C298.386 48.2003 306.185 55.1299 311.888 63.6658C317.592 72.2016 321.01 82.0581 321.815 92.2925C322.62 102.527 320.787 112.797 316.489 122.12C313.583 128.422 309.617 134.149 304.787 139.063C300.939 142.976 294.652 141.942 291.427 137.503C288.201 133.063 289.31 126.908 292.824 122.693C295.069 119.999 296.961 117.011 298.442 113.8C301.316 107.565 302.543 100.696 302.004 93.8516C301.465 87.0069 299.179 80.4149 295.365 74.7062C291.551 68.9975 286.335 64.3629 280.218 61.2459C274.1 58.1289 267.285 56.6336 260.425 56.9032C253.564 57.1727 246.887 59.198 241.033 62.7854C235.179 66.3728 230.343 71.4023 226.989 77.3927C225.261 80.4778 223.956 83.7646 223.096 87.165C221.751 92.4852 217.424 97 211.936 97Z" fill="#49BAFD"/>
<path d="M245.03 99.18C245.03 98.66 245.144 98.2 245.37 97.8C245.597 97.3867 245.904 97.0733 246.29 96.86C246.69 96.6333 247.137 96.52 247.63 96.52C248.124 96.52 248.564 96.6333 248.95 96.86C249.35 97.0733 249.664 97.3867 249.89 97.8C250.117 98.2 250.23 98.66 250.23 99.18C250.23 99.7133 250.117 100.18 249.89 100.58C249.664 100.967 249.35 101.273 248.95 101.5C248.564 101.713 248.124 101.82 247.63 101.82C247.137 101.82 246.69 101.713 246.29 101.5C245.904 101.273 245.597 100.967 245.37 100.58C245.144 100.18 245.03 99.7133 245.03 99.18ZM247.87 90.04L243.63 95.6C243.23 96.1067 242.897 96.66 242.63 97.26C242.364 97.8467 242.23 98.4867 242.23 99.18C242.23 100.273 242.47 101.2 242.95 101.96C243.444 102.72 244.097 103.3 244.91 103.7C245.724 104.087 246.63 104.28 247.63 104.28C248.63 104.28 249.537 104.087 250.35 103.7C251.164 103.3 251.81 102.72 252.29 101.96C252.784 101.2 253.03 100.273 253.03 99.18C253.03 98.5 252.91 97.88 252.67 97.32C252.43 96.76 252.11 96.28 251.71 95.88C251.31 95.48 250.85 95.1733 250.33 94.96C249.824 94.7467 249.304 94.64 248.77 94.64C248.277 94.64 247.857 94.6933 247.51 94.8C247.177 94.9067 246.837 95.14 246.49 95.5L247.01 95.32L251.49 90.04H247.87ZM265.623 99.48C265.623 98.52 265.423 97.7 265.023 97.02C264.637 96.3267 264.123 95.7933 263.483 95.42C262.843 95.0467 262.143 94.86 261.383 94.86C260.97 94.86 260.563 94.9 260.163 94.98C259.777 95.0467 259.41 95.1733 259.063 95.36L259.903 92.48H265.403V90H257.783L255.863 97.88C256.343 97.6133 256.797 97.4133 257.223 97.28C257.663 97.1333 258.09 97.0333 258.503 96.98C258.917 96.9133 259.31 96.88 259.683 96.88C260.19 96.88 260.657 96.9733 261.083 97.16C261.523 97.3333 261.87 97.5933 262.123 97.94C262.39 98.2867 262.523 98.7133 262.523 99.22C262.523 99.74 262.41 100.18 262.183 100.54C261.957 100.887 261.63 101.153 261.203 101.34C260.79 101.527 260.283 101.62 259.683 101.62C259.297 101.62 258.89 101.547 258.463 101.4C258.037 101.24 257.623 101.027 257.223 100.76C256.837 100.493 256.477 100.193 256.143 99.86L254.803 102.08C255.19 102.467 255.637 102.827 256.143 103.16C256.65 103.48 257.237 103.74 257.903 103.94C258.583 104.14 259.35 104.24 260.203 104.24C260.883 104.24 261.543 104.147 262.183 103.96C262.823 103.773 263.403 103.487 263.923 103.1C264.443 102.713 264.857 102.22 265.163 101.62C265.47 101.02 265.623 100.307 265.623 99.48ZM266.946 93.22C266.946 93.86 267.099 94.4533 267.406 95C267.726 95.5333 268.159 95.96 268.706 96.28C269.252 96.6 269.866 96.76 270.546 96.76C271.239 96.76 271.852 96.6 272.386 96.28C272.932 95.96 273.359 95.5333 273.666 95C273.972 94.4533 274.126 93.86 274.126 93.22C274.126 92.5533 273.972 91.9533 273.666 91.42C273.359 90.8867 272.932 90.4667 272.386 90.16C271.852 89.84 271.239 89.68 270.546 89.68C269.866 89.68 269.252 89.84 268.706 90.16C268.159 90.4667 267.726 90.8867 267.406 91.42C267.099 91.9533 266.946 92.5533 266.946 93.22ZM269.106 93.22C269.106 92.94 269.166 92.6867 269.286 92.46C269.406 92.2333 269.572 92.0533 269.786 91.92C269.999 91.7733 270.252 91.7 270.546 91.7C270.839 91.7 271.086 91.7733 271.286 91.92C271.499 92.0533 271.666 92.2333 271.786 92.46C271.906 92.6867 271.966 92.94 271.966 93.22C271.966 93.4867 271.906 93.74 271.786 93.98C271.666 94.2067 271.499 94.3867 271.286 94.52C271.086 94.6533 270.839 94.72 270.546 94.72C270.252 94.72 269.999 94.6533 269.786 94.52C269.572 94.3867 269.406 94.2067 269.286 93.98C269.166 93.74 269.106 93.4867 269.106 93.22ZM276.046 100.78C276.046 101.433 276.199 102.027 276.506 102.56C276.826 103.093 277.259 103.52 277.806 103.84C278.352 104.16 278.966 104.32 279.646 104.32C280.339 104.32 280.952 104.16 281.486 103.84C282.032 103.52 282.459 103.093 282.766 102.56C283.072 102.027 283.226 101.433 283.226 100.78C283.226 100.127 283.072 99.5333 282.766 99C282.459 98.4533 282.032 98.0267 281.486 97.72C280.952 97.4 280.339 97.24 279.646 97.24C278.966 97.24 278.352 97.4 277.806 97.72C277.259 98.0267 276.826 98.4533 276.506 99C276.199 99.5333 276.046 100.127 276.046 100.78ZM278.206 100.78C278.206 100.5 278.266 100.247 278.386 100.02C278.506 99.7933 278.672 99.6133 278.886 99.48C279.099 99.3467 279.352 99.28 279.646 99.28C279.939 99.28 280.186 99.3467 280.386 99.48C280.599 99.6133 280.766 99.7933 280.886 100.02C281.006 100.247 281.066 100.5 281.066 100.78C281.066 101.047 281.006 101.3 280.886 101.54C280.766 101.767 280.599 101.947 280.386 102.08C280.186 102.213 279.939 102.28 279.646 102.28C279.352 102.28 279.099 102.213 278.886 102.08C278.672 101.947 278.506 101.767 278.386 101.54C278.266 101.3 278.206 101.047 278.206 100.78ZM278.886 90L268.686 104H271.306L281.506 90H278.886Z" fill="#141414"/>
<path d="M56.32 136H64.864V134.24H60L63.184 131.12C63.6427 130.693 64.0107 130.208 64.288 129.664C64.576 129.12 64.72 128.555 64.72 127.968C64.72 127.595 64.64 127.211 64.48 126.816C64.3307 126.421 64.096 126.059 63.776 125.728C63.4667 125.397 63.072 125.131 62.592 124.928C62.112 124.715 61.5467 124.608 60.896 124.608C60.0427 124.608 59.3173 124.789 58.72 125.152C58.1333 125.504 57.6853 125.995 57.376 126.624C57.0773 127.243 56.928 127.952 56.928 128.752H58.8C58.8 128.261 58.88 127.829 59.04 127.456C59.2107 127.083 59.4507 126.8 59.76 126.608C60.0693 126.405 60.4373 126.304 60.864 126.304C61.1733 126.304 61.4453 126.357 61.68 126.464C61.9147 126.56 62.112 126.693 62.272 126.864C62.4427 127.035 62.5653 127.227 62.64 127.44C62.7253 127.643 62.768 127.851 62.768 128.064C62.768 128.363 62.72 128.645 62.624 128.912C62.528 129.179 62.384 129.445 62.192 129.712C62 129.979 61.7707 130.256 61.504 130.544L56.32 136ZM67.0003 135.184C67.0003 135.483 67.1069 135.744 67.3203 135.968C67.5443 136.192 67.8109 136.304 68.1203 136.304C68.4509 136.304 68.7229 136.192 68.9363 135.968C69.1496 135.744 69.2563 135.483 69.2563 135.184C69.2563 134.875 69.1496 134.613 68.9363 134.4C68.7229 134.176 68.4509 134.064 68.1203 134.064C67.8109 134.064 67.5443 134.176 67.3203 134.4C67.1069 134.613 67.0003 134.875 67.0003 135.184ZM71.8578 127.504C71.8578 127.973 71.9431 128.389 72.1138 128.752C72.2951 129.104 72.5404 129.403 72.8498 129.648C73.1591 129.893 73.5164 130.08 73.9218 130.208C74.3271 130.336 74.7591 130.4 75.2178 130.4C75.6764 130.4 76.1084 130.336 76.5138 130.208C76.9191 130.08 77.2764 129.893 77.5858 129.648C77.8951 129.403 78.1404 129.104 78.3218 128.752C78.5031 128.389 78.5938 127.973 78.5938 127.504C78.5938 126.928 78.4391 126.427 78.1298 126C77.8311 125.563 77.4258 125.221 76.9138 124.976C76.4124 124.731 75.8471 124.608 75.2178 124.608C74.5884 124.608 74.0178 124.731 73.5058 124.976C73.0044 125.221 72.6044 125.563 72.3058 126C72.0071 126.427 71.8578 126.928 71.8578 127.504ZM73.6498 127.696C73.6498 127.387 73.7138 127.109 73.8418 126.864C73.9804 126.619 74.1671 126.432 74.4018 126.304C74.6471 126.165 74.9191 126.096 75.2178 126.096C75.5271 126.096 75.7991 126.165 76.0338 126.304C76.2684 126.432 76.4498 126.619 76.5778 126.864C76.7164 127.109 76.7858 127.387 76.7858 127.696C76.7858 128.016 76.7164 128.293 76.5778 128.528C76.4391 128.763 76.2471 128.949 76.0018 129.088C75.7671 129.216 75.5058 129.28 75.2178 129.28C74.9298 129.28 74.6684 129.216 74.4338 129.088C74.1991 128.949 74.0071 128.763 73.8578 128.528C73.7191 128.293 73.6498 128.016 73.6498 127.696ZM71.4578 132.96C71.4578 133.429 71.5538 133.861 71.7458 134.256C71.9378 134.64 72.2044 134.981 72.5458 135.28C72.8978 135.568 73.2978 135.792 73.7458 135.952C74.2044 136.112 74.6951 136.192 75.2178 136.192C75.7404 136.192 76.2258 136.112 76.6738 135.952C77.1324 135.792 77.5324 135.568 77.8738 135.28C78.2258 134.981 78.4978 134.64 78.6898 134.256C78.8924 133.861 78.9938 133.429 78.9938 132.96C78.9938 132.416 78.8818 131.941 78.6578 131.536C78.4444 131.131 78.1564 130.795 77.7938 130.528C77.4311 130.251 77.0258 130.048 76.5778 129.92C76.1298 129.792 75.6764 129.728 75.2178 129.728C74.7591 129.728 74.3058 129.792 73.8578 129.92C73.4098 130.048 73.0044 130.251 72.6418 130.528C72.2791 130.795 71.9911 131.131 71.7778 131.536C71.5644 131.941 71.4578 132.416 71.4578 132.96ZM73.3138 132.704C73.3138 132.352 73.3991 132.032 73.5698 131.744C73.7511 131.456 73.9858 131.232 74.2738 131.072C74.5724 130.901 74.8871 130.816 75.2178 130.816C75.5484 130.816 75.8578 130.901 76.1458 131.072C76.4444 131.232 76.6844 131.456 76.8658 131.744C77.0471 132.032 77.1378 132.352 77.1378 132.704C77.1378 133.109 77.0471 133.456 76.8658 133.744C76.6844 134.021 76.4444 134.235 76.1458 134.384C75.8578 134.533 75.5484 134.608 75.2178 134.608C74.8871 134.608 74.5724 134.533 74.2738 134.384C73.9858 134.235 73.7511 134.021 73.5698 133.744C73.3991 133.456 73.3138 133.109 73.3138 132.704ZM80.3238 127.296C80.3238 127.797 80.4358 128.256 80.6598 128.672C80.8944 129.077 81.2198 129.403 81.6358 129.648C82.0518 129.893 82.5211 130.016 83.0438 130.016C83.5878 130.016 84.0624 129.893 84.4678 129.648C84.8838 129.403 85.2038 129.077 85.4278 128.672C85.6624 128.256 85.7798 127.797 85.7798 127.296C85.7798 126.795 85.6624 126.341 85.4278 125.936C85.2038 125.52 84.8838 125.189 84.4678 124.944C84.0624 124.699 83.5878 124.576 83.0438 124.576C82.5211 124.576 82.0518 124.699 81.6358 124.944C81.2198 125.189 80.8944 125.52 80.6598 125.936C80.4358 126.341 80.3238 126.795 80.3238 127.296ZM81.7958 127.296C81.7958 127.051 81.8491 126.827 81.9557 126.624C82.0624 126.421 82.2064 126.261 82.3878 126.144C82.5798 126.027 82.7984 125.968 83.0438 125.968C83.3104 125.968 83.5344 126.027 83.7158 126.144C83.8971 126.261 84.0411 126.421 84.1478 126.624C84.2544 126.827 84.3078 127.051 84.3078 127.296C84.3078 127.531 84.2544 127.755 84.1478 127.968C84.0411 128.171 83.8971 128.336 83.7158 128.464C83.5344 128.581 83.3104 128.64 83.0438 128.64C82.7984 128.64 82.5798 128.581 82.3878 128.464C82.2064 128.336 82.0624 128.171 81.9557 127.968C81.8491 127.755 81.7958 127.531 81.7958 127.296ZM86.9958 133.504C86.9958 133.995 87.1131 134.448 87.3478 134.864C87.5824 135.28 87.9024 135.611 88.3078 135.856C88.7238 136.091 89.1984 136.208 89.7318 136.208C90.2651 136.208 90.7344 136.091 91.1398 135.856C91.5558 135.611 91.8758 135.28 92.0998 134.864C92.3344 134.448 92.4518 133.995 92.4518 133.504C92.4518 132.992 92.3344 132.533 92.0998 132.128C91.8758 131.712 91.5558 131.387 91.1398 131.152C90.7344 130.907 90.2651 130.784 89.7318 130.784C89.1984 130.784 88.7238 130.907 88.3078 131.152C87.9024 131.387 87.5824 131.712 87.3478 132.128C87.1131 132.533 86.9958 132.992 86.9958 133.504ZM88.4838 133.488C88.4838 133.253 88.5318 133.035 88.6278 132.832C88.7344 132.629 88.8784 132.469 89.0598 132.352C89.2518 132.224 89.4758 132.16 89.7318 132.16C89.9878 132.16 90.2064 132.224 90.3878 132.352C90.5798 132.469 90.7238 132.629 90.8198 132.832C90.9264 133.035 90.9798 133.253 90.9798 133.488C90.9798 133.733 90.9264 133.957 90.8198 134.16C90.7238 134.363 90.5798 134.528 90.3878 134.656C90.2064 134.773 89.9878 134.832 89.7318 134.832C89.4758 134.832 89.2518 134.773 89.0598 134.656C88.8784 134.528 88.7344 134.363 88.6278 134.16C88.5318 133.947 88.4838 133.723 88.4838 133.488ZM89.4118 124.8L81.6518 136H83.3638L91.1238 124.8H89.4118Z" fill="#05A402"/>
<g clip-path="url(#clip0_1_3914)">
<path d="M50.1963 133L48.7517 133.387L47.2134 127.667L42.6497 135.571L41.3506 134.821L45.9144 126.917L40.1938 128.455L39.804 127L48.0001 124.804L50.1963 133Z" fill="#05A402"/>
</g>
<path d="M43.83 79.46L43.95 84.59H46.95L47.07 79.46H43.83ZM43.95 102.29L43.83 107.36H47.07L46.95 102.29H43.95ZM49.38 89.09L52.65 87.14C52.29 86.4 51.79 85.69 51.15 85.01C50.53 84.33 49.75 83.78 48.81 83.36C47.87 82.92 46.72 82.7 45.36 82.7C44.02 82.7 42.82 82.95 41.76 83.45C40.7 83.95 39.87 84.62 39.27 85.46C38.67 86.28 38.37 87.19 38.37 88.19C38.37 89.19 38.55 90.05 38.91 90.77C39.29 91.49 39.77 92.1 40.35 92.6C40.93 93.1 41.54 93.51 42.18 93.83C42.82 94.15 43.4 94.4 43.92 94.58C44.74 94.88 45.49 95.19 46.17 95.51C46.85 95.83 47.4 96.21 47.82 96.65C48.24 97.07 48.45 97.61 48.45 98.27C48.45 98.81 48.34 99.27 48.12 99.65C47.92 100.01 47.6 100.29 47.16 100.49C46.74 100.67 46.21 100.76 45.57 100.76C44.79 100.76 44.09 100.61 43.47 100.31C42.85 99.99 42.29 99.53 41.79 98.93C41.29 98.33 40.81 97.59 40.35 96.71L37.2 98.84C37.64 99.86 38.27 100.78 39.09 101.6C39.91 102.42 40.86 103.08 41.94 103.58C43.02 104.06 44.18 104.3 45.42 104.3C46.98 104.3 48.32 104.06 49.44 103.58C50.56 103.08 51.42 102.37 52.02 101.45C52.64 100.53 52.95 99.44 52.95 98.18C52.95 97.24 52.8 96.43 52.5 95.75C52.2 95.05 51.79 94.45 51.27 93.95C50.75 93.45 50.17 93.02 49.53 92.66C48.91 92.3 48.27 92 47.61 91.76C46.77 91.44 45.98 91.14 45.24 90.86C44.5 90.56 43.9 90.21 43.44 89.81C43 89.41 42.78 88.89 42.78 88.25C42.78 87.79 42.87 87.4 43.05 87.08C43.25 86.76 43.55 86.51 43.95 86.33C44.35 86.13 44.86 86.03 45.48 86.03C46.1 86.03 46.64 86.17 47.1 86.45C47.58 86.71 48 87.07 48.36 87.53C48.74 87.99 49.08 88.51 49.38 89.09ZM56.6213 88.07C56.6213 88.99 56.8013 89.8 57.1613 90.5C57.5413 91.18 58.0413 91.75 58.6613 92.21C59.3013 92.67 60.0213 93.02 60.8213 93.26C61.6213 93.5 62.4513 93.62 63.3113 93.62C64.1713 93.62 65.0013 93.5 65.8013 93.26C66.6013 93.02 67.3113 92.67 67.9313 92.21C68.5713 91.75 69.0713 91.18 69.4312 90.5C69.8113 89.8 70.0013 88.99 70.0013 88.07C70.0013 86.95 69.6913 85.98 69.0713 85.16C68.4713 84.34 67.6613 83.71 66.6413 83.27C65.6413 82.81 64.5313 82.58 63.3113 82.58C62.0713 82.58 60.9413 82.81 59.9213 83.27C58.9213 83.71 58.1213 84.34 57.5213 85.16C56.9213 85.98 56.6213 86.95 56.6213 88.07ZM60.6413 88.49C60.6413 87.97 60.7513 87.5 60.9713 87.08C61.2113 86.66 61.5313 86.34 61.9313 86.12C62.3313 85.9 62.7913 85.79 63.3113 85.79C63.8313 85.79 64.2913 85.9 64.6913 86.12C65.0913 86.34 65.4013 86.66 65.6213 87.08C65.8413 87.5 65.9513 87.97 65.9513 88.49C65.9513 89.03 65.8313 89.5 65.5913 89.9C65.3713 90.3 65.0613 90.62 64.6613 90.86C64.2613 91.08 63.8113 91.19 63.3113 91.19C62.8113 91.19 62.3613 91.08 61.9613 90.86C61.5613 90.62 61.2413 90.3 61.0013 89.9C60.7613 89.5 60.6413 89.03 60.6413 88.49ZM55.8713 98.3C55.8713 99.22 56.0613 100.06 56.4413 100.82C56.8413 101.56 57.3913 102.2 58.0913 102.74C58.7913 103.28 59.5813 103.7 60.4613 104C61.3613 104.28 62.3113 104.42 63.3113 104.42C64.3113 104.42 65.2513 104.28 66.1313 104C67.0313 103.7 67.8213 103.28 68.5013 102.74C69.2013 102.2 69.7513 101.56 70.1513 100.82C70.5513 100.06 70.7513 99.22 70.7513 98.3C70.7513 97.24 70.5313 96.33 70.0913 95.57C69.6513 94.79 69.0613 94.15 68.3213 93.65C67.6013 93.15 66.8013 92.78 65.9213 92.54C65.0413 92.3 64.1713 92.18 63.3113 92.18C62.4513 92.18 61.5813 92.3 60.7013 92.54C59.8213 92.78 59.0113 93.15 58.2713 93.65C57.5513 94.15 56.9713 94.79 56.5313 95.57C56.0913 96.33 55.8713 97.24 55.8713 98.3ZM60.1013 97.67C60.1013 97.09 60.2413 96.56 60.5213 96.08C60.8213 95.6 61.2113 95.22 61.6913 94.94C62.1913 94.66 62.7313 94.52 63.3113 94.52C63.8713 94.52 64.3913 94.66 64.8713 94.94C65.3713 95.22 65.7713 95.6 66.0713 96.08C66.3713 96.56 66.5213 97.09 66.5213 97.67C66.5213 98.37 66.3713 98.96 66.0713 99.44C65.7713 99.9 65.3713 100.26 64.8713 100.52C64.3913 100.76 63.8713 100.88 63.3113 100.88C62.7313 100.88 62.1913 100.76 61.6913 100.52C61.2113 100.26 60.8213 99.9 60.5213 99.44C60.2413 98.96 60.1013 98.37 60.1013 97.67ZM89.7281 97.22C89.7281 95.78 89.4281 94.55 88.8281 93.53C88.2481 92.49 87.4781 91.69 86.5181 91.13C85.5581 90.57 84.5081 90.29 83.3681 90.29C82.7481 90.29 82.1381 90.35 81.5381 90.47C80.9581 90.57 80.4081 90.76 79.8881 91.04L81.1481 86.72H89.3981V83H77.9681L75.0881 94.82C75.8081 94.42 76.4881 94.12 77.1281 93.92C77.7881 93.7 78.4281 93.55 79.0481 93.47C79.6681 93.37 80.2581 93.32 80.8181 93.32C81.5781 93.32 82.2781 93.46 82.9181 93.74C83.5781 94 84.0981 94.39 84.4781 94.91C84.8781 95.43 85.0781 96.07 85.0781 96.83C85.0781 97.61 84.9081 98.27 84.5681 98.81C84.2281 99.33 83.7381 99.73 83.0981 100.01C82.4781 100.29 81.7181 100.43 80.8181 100.43C80.2381 100.43 79.6281 100.32 78.9881 100.1C78.3481 99.86 77.7281 99.54 77.1281 99.14C76.5481 98.74 76.0081 98.29 75.5081 97.79L73.4981 101.12C74.0781 101.7 74.7481 102.24 75.5081 102.74C76.2681 103.22 77.1481 103.61 78.1481 103.91C79.1681 104.21 80.3181 104.36 81.5981 104.36C82.6181 104.36 83.6081 104.22 84.5681 103.94C85.5281 103.66 86.3981 103.23 87.1781 102.65C87.9581 102.07 88.5781 101.33 89.0381 100.43C89.4981 99.53 89.7281 98.46 89.7281 97.22ZM94.8016 100.7L92.1616 108.47L95.0416 109.16L98.6716 101.66L94.8016 100.7ZM101.112 104H118.002V100.07H109.212L114.672 94.91C115.552 94.11 116.262 93.22 116.802 92.24C117.342 91.26 117.612 90.21 117.612 89.09C117.612 88.33 117.452 87.57 117.132 86.81C116.832 86.05 116.362 85.36 115.722 84.74C115.102 84.1 114.312 83.59 113.352 83.21C112.412 82.81 111.312 82.61 110.052 82.61C108.352 82.61 106.912 82.97 105.732 83.69C104.572 84.39 103.692 85.34 103.092 86.54C102.492 87.74 102.192 89.09 102.192 90.59H106.392C106.392 89.75 106.532 89.01 106.812 88.37C107.112 87.73 107.522 87.24 108.042 86.9C108.582 86.54 109.222 86.36 109.962 86.36C110.482 86.36 110.942 86.45 111.342 86.63C111.742 86.79 112.082 87.01 112.362 87.29C112.642 87.57 112.852 87.89 112.992 88.25C113.132 88.61 113.202 88.98 113.202 89.36C113.202 89.9 113.102 90.42 112.902 90.92C112.702 91.42 112.412 91.92 112.032 92.42C111.652 92.92 111.192 93.46 110.652 94.04L101.112 104ZM136.779 97.22C136.779 95.78 136.479 94.55 135.879 93.53C135.299 92.49 134.529 91.69 133.569 91.13C132.609 90.57 131.559 90.29 130.419 90.29C129.799 90.29 129.189 90.35 128.589 90.47C128.009 90.57 127.459 90.76 126.939 91.04L128.199 86.72H136.449V83H125.019L122.139 94.82C122.859 94.42 123.539 94.12 124.179 93.92C124.839 93.7 125.479 93.55 126.099 93.47C126.719 93.37 127.309 93.32 127.869 93.32C128.629 93.32 129.329 93.46 129.969 93.74C130.629 94 131.149 94.39 131.529 94.91C131.929 95.43 132.129 96.07 132.129 96.83C132.129 97.61 131.959 98.27 131.619 98.81C131.279 99.33 130.789 99.73 130.149 100.01C129.529 100.29 128.769 100.43 127.869 100.43C127.289 100.43 126.679 100.32 126.039 100.1C125.399 99.86 124.779 99.54 124.179 99.14C123.599 98.74 123.059 98.29 122.559 97.79L120.549 101.12C121.129 101.7 121.799 102.24 122.559 102.74C123.319 103.22 124.199 103.61 125.199 103.91C126.219 104.21 127.369 104.36 128.649 104.36C129.669 104.36 130.659 104.22 131.619 103.94C132.579 103.66 133.449 103.23 134.229 102.65C135.009 102.07 135.629 101.33 136.089 100.43C136.549 99.53 136.779 98.46 136.779 97.22ZM143.352 93.5C143.352 92.44 143.452 91.48 143.652 90.62C143.852 89.74 144.142 88.99 144.522 88.37C144.902 87.73 145.352 87.24 145.872 86.9C146.392 86.56 146.972 86.39 147.612 86.39C148.272 86.39 148.862 86.56 149.382 86.9C149.902 87.24 150.352 87.73 150.732 88.37C151.112 88.99 151.402 89.74 151.602 90.62C151.802 91.48 151.902 92.44 151.902 93.5C151.902 94.56 151.802 95.53 151.602 96.41C151.402 97.27 151.112 98.02 150.732 98.66C150.352 99.28 149.902 99.76 149.382 100.1C148.862 100.44 148.272 100.61 147.612 100.61C146.972 100.61 146.392 100.44 145.872 100.1C145.352 99.76 144.902 99.28 144.522 98.66C144.142 98.02 143.852 97.27 143.652 96.41C143.452 95.53 143.352 94.56 143.352 93.5ZM139.182 93.5C139.182 95.72 139.532 97.64 140.232 99.26C140.952 100.88 141.942 102.14 143.202 103.04C144.482 103.92 145.952 104.36 147.612 104.36C149.332 104.36 150.822 103.92 152.082 103.04C153.342 102.14 154.322 100.88 155.022 99.26C155.722 97.64 156.072 95.72 156.072 93.5C156.072 91.28 155.722 89.36 155.022 87.74C154.322 86.12 153.342 84.87 152.082 83.99C150.822 83.09 149.332 82.64 147.612 82.64C145.952 82.64 144.482 83.09 143.202 83.99C141.942 84.87 140.952 86.12 140.232 87.74C139.532 89.36 139.182 91.28 139.182 93.5Z" fill="#3E3D49"/>
<path d="M44.3 64.3C43.0333 64.3 41.9133 64 40.94 63.4C39.9667 62.8 39.2 61.9533 38.64 60.86C38.0933 59.7667 37.82 58.48 37.82 57C37.82 55.52 38.0933 54.2333 38.64 53.14C39.2 52.0333 39.9667 51.18 40.94 50.58C41.9133 49.9667 43.0333 49.66 44.3 49.66C45.4467 49.66 46.4733 49.9133 47.38 50.42C48.2867 50.9133 49.0267 51.6133 49.6 52.52L47.98 53.48C47.5667 52.84 47.0467 52.3467 46.42 52C45.7933 51.6533 45.0867 51.48 44.3 51.48C43.3933 51.48 42.5933 51.7067 41.9 52.16C41.22 52.6133 40.6867 53.2533 40.3 54.08C39.9133 54.8933 39.72 55.8667 39.72 57C39.72 58.12 39.9133 59.0933 40.3 59.92C40.6867 60.7333 41.22 61.3667 41.9 61.82C42.5933 62.2733 43.3933 62.5 44.3 62.5C45.0867 62.5 45.7933 62.3267 46.42 61.98C47.0467 61.6333 47.5667 61.14 47.98 60.5L49.6 61.46C49.0267 62.3533 48.2867 63.0533 47.38 63.56C46.4733 64.0533 45.4467 64.3 44.3 64.3ZM54.698 64.22C53.6846 64.22 52.8646 63.9 52.238 63.26C51.6113 62.6067 51.298 61.6667 51.298 60.44V54.4H53.078V60.08C53.078 60.9067 53.2646 61.5333 53.638 61.96C54.0113 62.3733 54.4913 62.58 55.078 62.58C55.758 62.58 56.3113 62.36 56.738 61.92C57.178 61.4667 57.398 60.86 57.398 60.1V54.4H59.178V64H57.558L57.478 62.76C57.198 63.16 56.818 63.5067 56.338 63.8C55.8713 64.08 55.3246 64.22 54.698 64.22ZM61.5877 64V54.4H63.2277L63.3277 55.9C63.5943 55.38 63.9943 54.96 64.5277 54.64C65.0743 54.32 65.661 54.16 66.2877 54.16C66.501 54.16 66.701 54.1733 66.8877 54.2C67.0743 54.2267 67.2343 54.2533 67.3677 54.28V56.02C67.221 55.98 67.0343 55.9467 66.8077 55.92C66.581 55.8933 66.3343 55.88 66.0677 55.88C65.321 55.88 64.6877 56.1267 64.1677 56.62C63.6477 57.1 63.3877 57.7333 63.3877 58.52V64H61.5877ZM68.8658 64V54.4H70.5058L70.6058 55.9C70.8724 55.38 71.2724 54.96 71.8058 54.64C72.3524 54.32 72.9391 54.16 73.5658 54.16C73.7791 54.16 73.9791 54.1733 74.1658 54.2C74.3524 54.2267 74.5124 54.2533 74.6458 54.28V56.02C74.4991 55.98 74.3124 55.9467 74.0858 55.92C73.8591 55.8933 73.6124 55.88 73.3458 55.88C72.5991 55.88 71.9658 56.1267 71.4458 56.62C70.9258 57.1 70.6658 57.7333 70.6658 58.52V64H68.8658ZM80.2239 64.22C79.3172 64.22 78.5172 64.0267 77.8239 63.64C77.1306 63.2533 76.5906 62.6867 76.2039 61.94C75.8172 61.18 75.6239 60.2667 75.6239 59.2C75.6239 58.1733 75.8172 57.2867 76.2039 56.54C76.5906 55.78 77.1172 55.1933 77.7839 54.78C78.4639 54.3667 79.2439 54.16 80.1239 54.16C81.0039 54.16 81.7506 54.38 82.3639 54.82C82.9906 55.2467 83.4639 55.82 83.7839 56.54C84.1172 57.26 84.2839 58.0467 84.2839 58.9V59.38H77.3839C77.4106 60.4467 77.6772 61.26 78.1839 61.82C78.7039 62.3667 79.3906 62.64 80.2439 62.64C80.9239 62.64 81.4839 62.4733 81.9239 62.14C82.3772 61.8067 82.7572 61.3067 83.0639 60.64L84.4239 61.54C83.9706 62.4733 83.3906 63.1533 82.6839 63.58C81.9906 64.0067 81.1706 64.22 80.2239 64.22ZM77.4839 57.94H82.5239C82.4172 57.2467 82.1506 56.6867 81.7239 56.26C81.2972 55.8333 80.7572 55.62 80.1039 55.62C79.4106 55.62 78.8372 55.82 78.3839 56.22C77.9306 56.6067 77.6306 57.18 77.4839 57.94ZM86.2931 64V54.4H87.9131L88.0131 55.64C88.2931 55.24 88.6665 54.8933 89.1331 54.6C89.6131 54.3067 90.1598 54.16 90.7731 54.16C91.7865 54.16 92.6065 54.4867 93.2331 55.14C93.8731 55.78 94.1931 56.7133 94.1931 57.94V64H92.4131V58.32C92.4131 57.48 92.2265 56.8533 91.8531 56.44C91.4798 56.0133 90.9931 55.8 90.3931 55.8C89.7131 55.8 89.1598 56.0267 88.7331 56.48C88.3065 56.92 88.0931 57.5133 88.0931 58.26V64H86.2931ZM100.048 64.22C99.1413 64.22 98.4546 64.0467 97.988 63.7C97.5213 63.34 97.288 62.66 97.288 61.66V55.96H95.348V54.4H97.288V50.96H99.068V54.4H101.848V55.96H99.068V61.28C99.068 61.8 99.1813 62.1533 99.408 62.34C99.648 62.5133 100.001 62.6 100.468 62.6C100.708 62.6 100.955 62.5667 101.208 62.5C101.475 62.42 101.688 62.34 101.848 62.26V63.92C101.635 64.0133 101.361 64.0867 101.028 64.14C100.695 64.1933 100.368 64.22 100.048 64.22ZM109.031 64V50H114.571C115.811 50 116.777 50.3067 117.471 50.92C118.177 51.52 118.531 52.3933 118.531 53.54C118.531 54.3267 118.351 54.9867 117.991 55.52C117.631 56.0533 117.157 56.4267 116.571 56.64C117.331 56.8133 117.951 57.2333 118.431 57.9C118.924 58.5533 119.171 59.3333 119.171 60.24C119.171 61.4933 118.797 62.4333 118.051 63.06C117.317 63.6867 116.244 64 114.831 64H109.031ZM110.851 62.28H114.611C115.517 62.28 116.177 62.1 116.591 61.74C117.004 61.3667 117.211 60.7933 117.211 60.02C117.211 59.2733 116.964 58.6933 116.471 58.28C115.977 57.8667 115.351 57.66 114.591 57.66H110.851V62.28ZM110.851 55.92H114.371C115.077 55.92 115.617 55.7267 115.991 55.34C116.364 54.9533 116.551 54.44 116.551 53.8C116.551 52.4133 115.784 51.72 114.251 51.72H110.851V55.92ZM124.086 64.16C123.113 64.1867 122.306 63.9667 121.666 63.5C121.04 63.02 120.726 62.3333 120.726 61.44C120.726 60.7867 120.933 60.22 121.346 59.74C121.773 59.26 122.313 58.8867 122.966 58.62C123.633 58.34 124.32 58.2 125.026 58.2C125.44 58.1733 125.82 58.2133 126.166 58.32C126.513 58.4133 126.813 58.5533 127.066 58.74V57.54C127.066 56.7933 126.906 56.3067 126.586 56.08C126.28 55.8533 125.8 55.74 125.146 55.74C124.586 55.74 123.986 55.84 123.346 56.04C122.72 56.24 122.186 56.4933 121.746 56.8L120.906 55.4C121.453 55.0533 122.1 54.76 122.846 54.52C123.606 54.28 124.373 54.16 125.146 54.16C126.373 54.16 127.286 54.4067 127.886 54.9C128.486 55.38 128.786 56.26 128.786 57.54V62.36C128.786 62.6133 128.853 62.76 128.986 62.8C129.12 62.84 129.42 62.8067 129.886 62.7V63.86C129.713 63.9267 129.493 63.9933 129.226 64.06C128.96 64.1267 128.686 64.16 128.406 64.16C127.98 64.16 127.673 64.08 127.486 63.92C127.3 63.76 127.173 63.4733 127.106 63.06C126.746 63.42 126.293 63.6867 125.746 63.86C125.2 64.0333 124.646 64.1333 124.086 64.16ZM124.106 62.58C124.666 62.5667 125.173 62.4867 125.626 62.34C126.093 62.18 126.46 61.96 126.726 61.68C126.993 61.3867 127.113 61.04 127.086 60.64C127.06 60.2667 126.866 60 126.506 59.84C126.16 59.68 125.713 59.6133 125.166 59.64C124.673 59.6533 124.22 59.7467 123.806 59.92C123.393 60.08 123.06 60.2933 122.806 60.56C122.566 60.8267 122.446 61.1267 122.446 61.46C122.46 61.8333 122.613 62.12 122.906 62.32C123.2 62.5067 123.6 62.5933 124.106 62.58ZM131.61 64V49.66H133.41V64H131.61ZM138.662 64.16C137.689 64.1867 136.882 63.9667 136.242 63.5C135.616 63.02 135.302 62.3333 135.302 61.44C135.302 60.7867 135.509 60.22 135.922 59.74C136.349 59.26 136.889 58.8867 137.542 58.62C138.209 58.34 138.896 58.2 139.602 58.2C140.016 58.1733 140.396 58.2133 140.742 58.32C141.089 58.4133 141.389 58.5533 141.642 58.74V57.54C141.642 56.7933 141.482 56.3067 141.162 56.08C140.856 55.8533 140.376 55.74 139.722 55.74C139.162 55.74 138.562 55.84 137.922 56.04C137.296 56.24 136.762 56.4933 136.322 56.8L135.482 55.4C136.029 55.0533 136.676 54.76 137.422 54.52C138.182 54.28 138.949 54.16 139.722 54.16C140.949 54.16 141.862 54.4067 142.462 54.9C143.062 55.38 143.362 56.26 143.362 57.54V62.36C143.362 62.6133 143.429 62.76 143.562 62.8C143.696 62.84 143.996 62.8067 144.462 62.7V63.86C144.289 63.9267 144.069 63.9933 143.802 64.06C143.536 64.1267 143.262 64.16 142.982 64.16C142.556 64.16 142.249 64.08 142.062 63.92C141.876 63.76 141.749 63.4733 141.682 63.06C141.322 63.42 140.869 63.6867 140.322 63.86C139.776 64.0333 139.222 64.1333 138.662 64.16ZM138.682 62.58C139.242 62.5667 139.749 62.4867 140.202 62.34C140.669 62.18 141.036 61.96 141.302 61.68C141.569 61.3867 141.689 61.04 141.662 60.64C141.636 60.2667 141.442 60 141.082 59.84C140.736 59.68 140.289 59.6133 139.742 59.64C139.249 59.6533 138.796 59.7467 138.382 59.92C137.969 60.08 137.636 60.2933 137.382 60.56C137.142 60.8267 137.022 61.1267 137.022 61.46C137.036 61.8333 137.189 62.12 137.482 62.32C137.776 62.5067 138.176 62.5933 138.682 62.58ZM146.185 64V54.4H147.805L147.905 55.64C148.185 55.24 148.559 54.8933 149.025 54.6C149.505 54.3067 150.052 54.16 150.665 54.16C151.679 54.16 152.499 54.4867 153.125 55.14C153.765 55.78 154.085 56.7133 154.085 57.94V64H152.305V58.32C152.305 57.48 152.119 56.8533 151.745 56.44C151.372 56.0133 150.885 55.8 150.285 55.8C149.605 55.8 149.052 56.0267 148.625 56.48C148.199 56.92 147.985 57.5133 147.985 58.26V64H146.185ZM160.531 64.22C159.651 64.22 158.864 64.0133 158.171 63.6C157.491 63.1733 156.951 62.5867 156.551 61.84C156.164 61.08 155.971 60.2 155.971 59.2C155.971 58.2 156.164 57.32 156.551 56.56C156.951 55.8 157.491 55.2133 158.171 54.8C158.864 54.3733 159.651 54.16 160.531 54.16C161.264 54.16 161.937 54.3133 162.551 54.62C163.164 54.9133 163.677 55.3467 164.091 55.92L162.671 56.98C162.177 56.1933 161.464 55.8 160.531 55.8C159.717 55.8 159.051 56.1 158.531 56.7C158.024 57.3 157.771 58.1333 157.771 59.2C157.771 60.2533 158.024 61.08 158.531 61.68C159.051 62.28 159.717 62.58 160.531 62.58C161.464 62.58 162.184 62.1933 162.691 61.42L164.091 62.46C163.677 63.0333 163.164 63.4733 162.551 63.78C161.937 64.0733 161.264 64.22 160.531 64.22ZM169.646 64.22C168.739 64.22 167.939 64.0267 167.246 63.64C166.552 63.2533 166.012 62.6867 165.626 61.94C165.239 61.18 165.046 60.2667 165.046 59.2C165.046 58.1733 165.239 57.2867 165.626 56.54C166.012 55.78 166.539 55.1933 167.206 54.78C167.886 54.3667 168.666 54.16 169.546 54.16C170.426 54.16 171.172 54.38 171.786 54.82C172.412 55.2467 172.886 55.82 173.206 56.54C173.539 57.26 173.706 58.0467 173.706 58.9V59.38H166.806C166.832 60.4467 167.099 61.26 167.606 61.82C168.126 62.3667 168.812 62.64 169.666 62.64C170.346 62.64 170.906 62.4733 171.346 62.14C171.799 61.8067 172.179 61.3067 172.486 60.64L173.846 61.54C173.392 62.4733 172.812 63.1533 172.106 63.58C171.412 64.0067 170.592 64.22 169.646 64.22ZM166.906 57.94H171.946C171.839 57.2467 171.572 56.6867 171.146 56.26C170.719 55.8333 170.179 55.62 169.526 55.62C168.832 55.62 168.259 55.82 167.806 56.22C167.352 56.6067 167.052 57.18 166.906 57.94Z" fill="#94ADC2"/>
<defs>
<clipPath id="clip0_1_3914">
<rect width="18" height="18" rx="9" transform="matrix(1 0 0 -1 36 139)" fill="white"/>
</clipPath>
</defs>
</svg>
