<svg width="40" height="39" viewBox="0 0 40 39" fill="none" xmlns="http://www.w3.org/2000/svg">
<path d="M0.0698572 9.01582C0.083863 9.09442 0.0952011 9.17302 0.0998697 9.25227C0.159228 10.2695 0.928214 18.3854 10.5962 28.2673C10.5962 28.2673 18.9477 36.7782 27.7374 38.5676C27.7754 38.5755 27.8128 38.584 27.8508 38.5945C28.383 38.7392 32.9075 39.8828 35.2398 37.5439L38.5626 34.2807C38.5926 34.2512 38.6239 34.2224 38.6559 34.1949C38.9874 33.91 41.295 31.778 38.9867 29.5111C36.6504 27.2167 33.7052 24.4192 33.3717 24.1022C33.3557 24.0871 33.3404 24.0721 33.3251 24.0563C33.1443 23.8716 31.4276 22.2106 29.4168 23.7282C29.3587 23.7721 29.304 23.8212 29.252 23.8723L25.9987 27.0758C25.2697 27.7668 24.1119 27.7577 23.3936 27.0555L12.2789 16.1821C11.5326 15.4517 11.552 14.259 12.3216 13.5523L14.9227 11.1655C14.9227 11.1655 17.7726 8.57436 14.712 5.77559L10.1687 1.31381C10.1407 1.2863 10.114 1.25813 10.0874 1.22866C9.79391 0.903783 7.61634 -1.32056 5.06127 1.1553C4.98324 1.23062 4.89854 1.29874 4.8085 1.359C3.94147 1.94325 -0.615095 5.20772 0.0698572 9.01582Z" fill="white"/>
</svg>
